<svg xmlns="http://www.w3.org/2000/svg" width="578" height="382" viewBox="0 0 578 382">
<rect width="100%" height="100%" fill="white"/>
<polygon style="fill:#dde8f4;stroke:#7faed4;stroke-width:1" points="168.8,157.7 163.5,163.8 159.2,171.0 155.2,178.4 151.5,185.9 147.9,193.6 144.7,201.4 141.5,209.3 138.3,217.2 135.2,225.1 132.2,233.0 128.9,240.8 125.0,248.3 120.7,255.3 115.2,261.5 107.0,263.7 98.9,261.6 92.7,256.2 87.4,249.8 83.3,242.5 80.3,234.5 77.4,226.5 74.9,218.3 72.9,209.9 72.1,201.2 71.6,192.5 71.4,183.8 71.0,175.1 71.2,166.3 72.1,157.6 72.8,148.9 73.1,140.2 74.3,131.6 75.0,122.9 76.6,114.4 76.6,105.8 75.3,97.3 75.8,88.5 75.7,79.8 76.4,71.1 77.3,62.5 78.9,53.9 81.7,45.9 84.7,37.9 86.6,29.6 83.5,22.2 74.8,22.0 67.0,24.6 62.6,31.7 59.0,39.3 55.8,47.1 52.6,55.0 49.4,62.9 46.4,70.8 43.5,78.8 39.3,85.1 33.8,91.2 31.9,99.4 29.7,107.6 29.2,116.3 35.1,121.6 36.8,130.1 37.7,138.8 38.1,147.5 38.6,156.2 39.9,164.6 41.6,173.0 43.2,181.0 43.5,189.6 44.7,198.2 46.5,206.6 48.5,215.0 50.8,223.3 53.6,231.4 56.6,239.3 60.1,247.0 64.1,254.4 68.9,261.2 73.9,267.8 80.0,273.2 86.8,278.1 94.2,281.9 102.6,284.0 111.3,283.4 119.1,280.3 125.9,275.5 131.2,269.2 135.6,262.1 138.9,254.3 141.6,246.2 144.0,237.9 146.3,229.7 148.6,221.4 150.6,213.0 152.8,204.7 155.2,196.4 157.8,188.3 160.8,180.3 164.0,172.5 167.5,164.8"/>
<polyline style="fill:none;stroke:#b0c8e4;stroke-width:2;stroke-linecap:round" points="43.5,78.8 46.4,70.8 49.4,62.9 52.6,55.0 55.8,47.1 59.0,39.3 62.6,31.7 67.0,24.6 74.8,22.0 83.5,22.2"/>
<polyline style="fill:none;stroke:#1a6e2a;stroke-width:2.5;stroke-linecap:round" points="74.3,131.6 75.0,122.9 76.6,114.4 76.6,105.8 75.3,97.3 75.8,88.5 75.7,79.8 76.4,71.1 77.3,62.5 78.9,53.9 81.7,45.9 84.7,37.9 86.6,29.6 83.5,22.2"/>
<polyline style="fill:none;stroke:#777;stroke-width:1.2;stroke-dasharray:3,2;stroke-linecap:round" points="58.9,105.2 59.8,100.4 60.9,95.6 62.2,90.8 62.9,86.0 63.3,81.2 63.7,76.5 64.6,71.7 65.4,66.9 66.2,62.1 67.2,57.3 68.3,52.5 69.5,47.8 70.9,43.1 72.8,38.6 75.0,34.4 78.0,31.0 80.6,27.6 82.6,24.9 83.5,22.2"/>
<line style="stroke:#2980b9;stroke-width:1.5;stroke-dasharray:5,3;fill:none" x1="58.9" y1="105.2" x2="83.5" y2="22.2"/>
<circle style="fill:#c0392b" cx="67.2" cy="57.3" r="5"/>
<line style="stroke:#c0392b;stroke-width:2;fill:none" x1="71.2" y1="63.7" x2="69.0" y2="60.2"/>
<polygon fill="#c0392b" stroke="none" points="67.2,57.3 66.0,62.0 72.0,58.3"/>
<circle cx="170.0" cy="28.0" r="13" fill="#f0f0f0" stroke="#bbb" stroke-width="1.2"/>
<text style="font-family:Arial,sans-serif;font-size:12px;font-weight:bold;text-anchor:middle;dominant-baseline:middle" x="170.0" y="28.0" fill="#555">≈0</text>
<text style="font-family:Arial,sans-serif;font-size:9px;fill:#555;text-anchor:middle" x="99.0" y="292.0">value: -1.018</text>
<text style="font-family:Arial,sans-serif;font-size:9px;font-style:italic;fill:#333;text-anchor:middle" x="99.0" y="311.0">Gyrodactylus nebulosus</text>
<text style="font-family:Arial,sans-serif;font-size:11px;fill:#222;text-anchor:middle" x="99.0" y="325.0">State 0 — straight</text>
<text style="font-family:Arial,sans-serif;font-size:9px;fill:#555;text-anchor:middle" x="99.0" y="338.0">-1.03 &le; signed sinuosity &lt; 1.03</text>
<polygon style="fill:#dde8f4;stroke:#7faed4;stroke-width:1" points="338.1,192.9 335.5,199.2 333.7,207.5 331.8,215.8 329.9,224.0 327.9,232.3 325.8,240.5 323.4,248.6 320.7,256.6 317.3,264.2 310.6,268.6 302.2,268.0 295.6,263.2 291.0,256.4 287.5,248.8 285.2,240.7 283.6,232.3 282.6,223.9 281.8,215.3 281.2,206.7 280.8,198.1 280.4,189.5 279.7,180.9 278.7,172.4 277.4,164.0 275.9,155.6 274.1,147.4 272.7,139.0 271.3,130.6 270.0,122.2 268.8,113.8 267.7,105.2 266.8,96.7 266.2,88.1 265.9,79.5 266.6,70.9 268.8,62.7 272.4,55.3 277.1,48.6 282.9,42.8 289.7,38.3 297.5,38.6 305.7,38.8 313.4,37.2 321.8,38.4 325.2,36.6 317.7,32.9 310.9,28.3 303.9,24.0 295.7,22.0 287.2,23.0 279.3,25.8 272.2,30.0 265.9,35.2 260.2,41.1 255.4,47.7 251.4,54.9 248.0,62.6 245.5,70.7 243.5,78.9 242.0,87.3 240.7,95.7 239.7,104.1 238.9,112.7 238.5,121.3 238.3,129.9 238.3,138.6 238.5,147.3 238.9,155.9 239.6,164.4 240.2,173.0 241.7,181.2 243.0,188.5 245.5,196.0 248.3,203.9 252.4,210.9 257.9,210.6 260.0,218.8 262.1,227.0 264.3,235.2 266.9,243.3 269.9,251.1 273.0,258.9 276.9,266.2 281.7,272.9 287.5,278.5 294.9,282.3 303.2,284.0 311.7,283.6 319.6,280.9 326.1,275.9 330.2,268.7 332.2,260.5 333.7,252.1 335.1,243.7 336.4,235.3 337.5,226.8 338.5,218.2 339.4,209.8 339.7,201.1"/>
<polyline style="fill:none;stroke:#b0c8e4;stroke-width:2;stroke-linecap:round" points="239.6,164.4 238.9,155.9 238.5,147.3 238.3,138.6 238.3,129.9 238.5,121.3 238.9,112.7 239.7,104.1 240.7,95.7 242.0,87.3 243.5,78.9 245.5,70.7 248.0,62.6 251.4,54.9 255.4,47.7 260.2,41.1 265.9,35.2 272.2,30.0 279.3,25.8 287.2,23.0 295.7,22.0"/>
<polyline style="fill:none;stroke:#1a6e2a;stroke-width:2.5;stroke-linecap:round" points="280.8,198.1 280.4,189.5 279.7,180.9 278.7,172.4 277.4,164.0 275.9,155.6 274.1,147.4 272.7,139.0 271.3,130.6 270.0,122.2 268.8,113.8 267.7,105.2 266.8,96.7 266.2,88.1 265.9,79.5 266.6,70.9 268.8,62.7 272.4,55.3 277.1,48.6 282.9,42.8 289.7,38.3 297.5,38.6 305.7,38.8 313.4,37.2 321.8,38.4 325.2,36.6 317.7,32.9 310.9,28.3 303.9,24.0 295.7,22.0"/>
<polyline style="fill:none;stroke:#777;stroke-width:1.2;stroke-dasharray:3,2;stroke-linecap:round" points="260.2,181.3 259.5,170.6 258.6,159.8 257.5,149.2 256.3,138.6 255.3,127.9 254.6,117.3 254.2,106.6 254.0,95.9 254.3,85.3 255.3,74.6 258.0,64.3 262.7,54.7 269.1,46.3 277.3,41.0 286.5,37.5 296.1,34.6 298.3,29.6 297.1,24.6 295.7,22.0"/>
<line style="stroke:#2980b9;stroke-width:1.5;stroke-dasharray:5,3;fill:none" x1="260.2" y1="181.3" x2="295.7" y2="22.0"/>
<circle style="fill:#c0392b" cx="255.3" cy="74.6" r="5"/>
<line style="stroke:#c0392b;stroke-width:2;fill:none" x1="278.0" y1="101.6" x2="258.5" y2="78.5"/>
<polygon fill="#c0392b" stroke="none" points="255.3,74.6 255.9,80.7 261.2,76.2"/>
<circle cx="360.0" cy="28.0" r="13" fill="#fce8e8" stroke="#e8b0b0" stroke-width="1.2"/>
<text style="font-family:Arial,sans-serif;font-size:18px;font-weight:bold;text-anchor:middle;dominant-baseline:middle" x="360.0" y="28.0" fill="#c0392b">−</text>
<text style="font-family:Arial,sans-serif;font-size:9px;fill:#555;text-anchor:middle" x="289.0" y="292.0">value: -1.352</text>
<text style="font-family:Arial,sans-serif;font-size:9px;font-style:italic;fill:#333;text-anchor:middle" x="289.0" y="311.0">Gyrocerviceanseris passamaquoddyensis</text>
<text style="font-family:Arial,sans-serif;font-size:11px;fill:#222;text-anchor:middle" x="289.0" y="325.0">State 1 — curved outward</text>
<text style="font-family:Arial,sans-serif;font-size:9px;fill:#555;text-anchor:middle" x="289.0" y="338.0">signed sinuosity &lt; -1.03</text>
<polygon style="fill:#dde8f4;stroke:#7faed4;stroke-width:1" points="539.3,162.3 535.4,169.3 532.3,177.1 529.4,185.0 526.5,192.9 522.9,200.3 519.5,207.9 516.0,215.5 512.5,223.1 508.8,230.5 505.4,238.1 501.9,245.6 497.3,252.4 492.1,258.9 483.9,260.8 475.6,258.8 469.8,253.0 465.2,245.9 461.9,238.2 459.8,230.0 458.2,221.9 457.3,213.6 455.9,205.2 454.7,196.7 455.4,188.0 455.4,179.5 455.6,171.1 456.0,162.3 457.3,154.0 458.6,145.6 459.8,137.2 461.7,129.1 464.7,121.6 466.1,113.6 466.5,104.8 470.0,97.3 473.0,89.7 474.3,81.5 475.6,73.7 477.5,65.8 479.5,57.7 482.0,49.9 483.9,41.8 482.6,33.4 478.6,26.5 470.2,24.9 462.4,22.0 454.4,23.9 449.7,30.0 447.5,37.7 445.1,45.7 442.3,53.7 438.6,61.2 434.3,68.2 426.8,71.3 420.6,76.2 418.2,84.3 417.9,93.1 419.1,101.5 422.2,109.3 423.8,117.6 424.8,126.1 425.2,134.4 425.4,143.3 425.8,152.0 425.9,161.0 426.0,169.9 426.1,178.8 426.5,187.5 426.7,195.8 427.9,204.3 429.5,212.5 430.9,220.9 432.5,229.4 434.9,237.4 437.9,245.2 441.7,252.6 445.9,259.8 451.1,266.3 457.3,271.8 463.9,276.9 471.4,280.7 479.3,283.3 488.0,284.0 496.4,282.7 503.6,278.4 509.9,272.8 514.2,265.7 517.3,257.9 520.3,250.2 522.4,242.2 524.3,234.1 526.2,226.0 528.0,217.9 530.2,210.0 532.4,202.1 534.4,194.0 536.9,186.2 538.3,177.9 540.1,169.8"/>
<polyline style="fill:none;stroke:#b0c8e4;stroke-width:2;stroke-linecap:round" points="434.3,68.2 438.6,61.2 442.3,53.7 445.1,45.7 447.5,37.7 449.7,30.0 454.4,23.9 462.4,22.0"/>
<polyline style="fill:none;stroke:#1a6e2a;stroke-width:2.5;stroke-linecap:round" points="466.5,104.8 470.0,97.3 473.0,89.7 474.3,81.5 475.6,73.7 477.5,65.8 479.5,57.7 482.0,49.9 483.9,41.8 482.6,33.4 478.6,26.5 470.2,24.9 462.4,22.0"/>
<polyline style="fill:none;stroke:#777;stroke-width:1.2;stroke-dasharray:3,2;stroke-linecap:round" points="450.4,86.5 452.3,82.8 454.1,79.2 455.8,75.5 457.0,71.6 458.1,67.6 459.1,63.7 460.1,59.7 461.3,55.8 462.3,51.8 463.5,47.8 464.7,43.9 465.7,39.9 466.4,35.9 466.5,32.0 466.3,28.4 465.6,25.4 464.4,24.4 463.4,23.3 462.4,22.0"/>
<line style="stroke:#2980b9;stroke-width:1.5;stroke-dasharray:5,3;fill:none" x1="450.4" y1="86.5" x2="462.4" y2="22.0"/>
<circle style="fill:#c0392b" cx="463.5" cy="47.8" r="5"/>
<line style="stroke:#c0392b;stroke-width:2;fill:none" x1="456.4" y1="54.2" x2="460.3" y2="50.7"/>
<polygon fill="#c0392b" stroke="none" points="463.5,47.8 458.0,48.1 462.6,53.3"/>
<circle cx="550.0" cy="28.0" r="13" fill="#eafaf1" stroke="#a9dfbf" stroke-width="1.2"/>
<text style="font-family:Arial,sans-serif;font-size:18px;font-weight:bold;text-anchor:middle;dominant-baseline:middle" x="550.0" y="28.0" fill="#27ae60">+</text>
<text style="font-family:Arial,sans-serif;font-size:9px;fill:#555;text-anchor:middle" x="479.0" y="292.0">value: 1.194</text>
<text style="font-family:Arial,sans-serif;font-size:9px;font-style:italic;fill:#333;text-anchor:middle" x="479.0" y="311.0">Gyrodactylus salmonis</text>
<text style="font-family:Arial,sans-serif;font-size:11px;fill:#222;text-anchor:middle" x="479.0" y="325.0">State 2 — curved inward</text>
<text style="font-family:Arial,sans-serif;font-size:9px;fill:#555;text-anchor:middle" x="479.0" y="338.0">signed sinuosity &ge; 1.03</text>
<line x1="10" y1="362" x2="34" y2="362" stroke="#1a6e2a" stroke-width="2.5"/>
<text style="font-family:Arial,sans-serif;font-size:8.5px;fill:#333" x="38" y="366">inner edge</text>
<line x1="108" y1="362" x2="132" y2="362" stroke="#b0c8e4" stroke-width="2"/>
<text style="font-family:Arial,sans-serif;font-size:8.5px;fill:#333" x="136" y="366">outer edge</text>
<line x1="208" y1="362" x2="232" y2="362" stroke="#777" stroke-width="1.2" stroke-dasharray="3,2"/>
<text style="font-family:Arial,sans-serif;font-size:8.5px;fill:#333" x="236" y="366">midline (arc)</text>
<line x1="310" y1="362" x2="334" y2="362" stroke="#2980b9" stroke-width="1.5" stroke-dasharray="5,3"/>
<text style="font-family:Arial,sans-serif;font-size:8.5px;fill:#333" x="338" y="366">chord (basal midpt&#x2192;tip)</text>
<circle cx="470" cy="362" r="4.5" fill="#c0392b"/>
<text style="font-family:Arial,sans-serif;font-size:8.5px;fill:#333" x="478" y="366">midline midpt &#xB7; displacement</text>
</svg>