<svg xmlns="http://www.w3.org/2000/svg" width="1000" height="460" viewBox="0 0 1000 460">
<rect width="100%" height="100%" fill="white"/>
<style>text{font-family:Arial,sans-serif;} .label{font-size:12px;font-style:italic;} .angle{font-size:13px;font-weight:bold;fill:#6020a0;} .desc{font-size:10px;fill:#555;}</style>
<path d="M 190.8,290.2 L 184.8,293.1 L 177.9,300.1 L 170.3,306.4 L 162.3,312.2 L 153.6,317.0 L 144.6,321.3 L 134.8,324.2 L 124.6,324.8 L 114.7,322.6 L 105.9,318.0 L 98.3,311.7 L 92.3,304.0 L 87.0,295.6 L 83.3,286.1 L 80.8,276.3 L 78.5,266.5 L 77.6,256.4 L 77.4,245.9 L 77.0,235.6 L 77.3,225.2 L 79.6,215.4 L 82.4,205.8 L 85.9,196.3 L 90.8,187.6 L 96.4,179.6 L 102.7,171.9 L 109.7,165.0 L 117.0,158.3 L 124.5,151.9 L 132.4,146.0 L 140.2,139.9 L 147.8,133.6 L 155.5,127.4 L 163.1,121.1 L 170.8,114.9 L 179.5,110.2 L 188.8,106.2 L 197.8,102.0 L 204.2,94.5 L 202.6,85.1 L 195.7,78.2 L 186.6,74.1 L 176.4,74.0 L 167.4,78.3 L 158.8,83.3 L 150.8,89.0 L 142.2,94.1 L 133.6,99.1 L 125.1,104.2 L 116.9,109.7 L 108.8,115.4 L 100.7,121.0 L 92.1,125.9 L 83.4,130.8 L 74.9,135.9 L 67.6,136.9 L 67.5,126.4 L 67.5,116.0 L 67.7,105.5 L 64.4,97.2 L 54.2,95.8 L 46.0,100.2 L 42.3,109.4 L 39.4,119.2 L 36.6,129.0 L 34.9,139.2 L 34.0,149.5 L 34.8,159.6 L 36.0,169.9 L 37.1,180.2 L 37.4,190.3 L 36.9,200.7 L 36.7,211.1 L 36.8,221.6 L 37.8,231.9 L 39.4,242.1 L 41.2,252.2 L 43.3,262.2 L 45.5,272.1 L 47.8,281.8 L 51.2,291.2 L 55.6,300.3 L 61.0,308.6 L 66.4,316.8 L 72.7,324.4 L 79.7,331.3 L 88.0,336.7 L 97.0,341.0 L 106.5,344.3 L 116.4,346.0 L 126.9,346.0 L 136.7,343.8 L 145.8,339.7 L 154.4,334.7 L 162.7,329.3 L 170.4,323.2 L 177.4,316.3 L 184.0,309.0 L 188.7,300.1 Z" fill="#dde8f4" stroke="#3a6ea8" stroke-width="1.4"/>
<line x1="54.3" y1="20.4" x2="64.6" y2="346.6" stroke="#1a6e2a" stroke-width="1.8" stroke-dasharray="7,3"/>
<line x1="-66.2" y1="287.6" x2="185.1" y2="79.4" stroke="#a03020" stroke-width="1.8" stroke-dasharray="7,3"/>
<path d="M 58.3,149.5 A 34,34 0 0,1 85.6,161.8" fill="none" stroke="#6020a0" stroke-width="2.2"/>
<text x="80.0" y="137.9" text-anchor="middle" dominant-baseline="middle" class="angle">52.2°</text>
<circle cx="59.4" cy="183.5" r="4" fill="#6020a0"/>
<text x="170.0" y="416" text-anchor="middle" class="label">L. gussevi</text>
<text x="170.0" y="431" text-anchor="middle" class="desc">(moderately divergent)</text>
<path d="M 477.3,231.6 L 474.5,236.3 L 469.6,242.0 L 467.0,250.2 L 464.0,258.2 L 461.1,266.2 L 457.9,274.2 L 454.4,281.9 L 451.4,289.9 L 448.7,298.0 L 444.6,305.2 L 440.2,312.4 L 435.0,318.8 L 428.2,323.4 L 419.5,324.0 L 411.6,321.1 L 406.0,315.2 L 401.2,308.5 L 397.9,300.7 L 395.4,292.4 L 394.0,283.8 L 393.0,275.1 L 392.8,266.2 L 393.0,257.4 L 393.9,248.6 L 394.9,239.9 L 395.8,231.1 L 397.3,222.5 L 398.8,213.9 L 400.4,205.3 L 402.5,196.9 L 404.9,188.7 L 408.2,180.8 L 410.7,172.8 L 410.9,164.0 L 413.1,155.7 L 416.6,148.1 L 419.4,140.6 L 420.2,131.8 L 420.6,123.0 L 420.7,114.2 L 420.8,105.3 L 420.8,96.5 L 421.0,87.7 L 419.8,79.1 L 413.3,74.2 L 404.5,74.0 L 396.5,76.7 L 391.4,83.1 L 390.8,91.9 L 390.5,100.7 L 389.2,109.3 L 387.3,117.8 L 384.7,126.0 L 379.3,132.1 L 372.8,137.1 L 374.4,142.5 L 370.1,144.1 L 367.8,152.4 L 364.0,159.8 L 366.5,168.0 L 366.8,176.7 L 366.9,185.5 L 366.5,194.3 L 366.0,203.1 L 365.5,211.9 L 364.9,220.7 L 364.6,229.5 L 364.3,238.3 L 364.0,247.2 L 364.0,256.0 L 364.5,264.8 L 365.1,273.6 L 366.3,282.3 L 368.0,290.8 L 370.4,299.1 L 373.0,307.3 L 376.5,315.0 L 380.9,322.2 L 385.6,328.9 L 391.5,334.8 L 398.2,339.7 L 405.8,343.3 L 414.2,345.4 L 422.9,346.0 L 431.5,344.4 L 439.1,341.0 L 445.4,335.8 L 450.8,329.5 L 454.7,322.1 L 458.2,314.4 L 461.1,306.4 L 463.0,298.0 L 465.5,289.8 L 467.8,281.5 L 470.1,273.2 L 472.3,264.8 L 474.6,256.5 L 476.4,247.9 L 478.7,239.5 Z" fill="#dde8f4" stroke="#3a6ea8" stroke-width="1.4"/>
<line x1="402.1" y1="46.3" x2="366.4" y2="370.7" stroke="#1a6e2a" stroke-width="1.8" stroke-dasharray="7,3"/>
<line x1="348.0" y1="367.6" x2="420.5" y2="49.4" stroke="#a03020" stroke-width="1.8" stroke-dasharray="7,3"/>
<path d="M 388.0,174.7 A 34,34 0 0,1 391.8,175.4" fill="none" stroke="#6020a0" stroke-width="2.2"/>
<text x="392.6" y="159.2" text-anchor="middle" dominant-baseline="middle" class="angle">6.6°</text>
<circle cx="384.3" cy="208.5" r="4" fill="#6020a0"/>
<text x="500.0" y="416" text-anchor="middle" class="label">G. crisoleucas</text>
<text x="500.0" y="431" text-anchor="middle" class="desc">(nearly aligned)</text>
<path d="M 802.3,260.5 L 799.1,267.9 L 795.9,275.4 L 793.5,283.3 L 790.4,290.8 L 787.2,298.3 L 783.6,305.4 L 779.9,312.6 L 776.1,319.6 L 771.5,326.2 L 765.0,330.4 L 756.7,330.2 L 750.2,325.8 L 745.3,319.6 L 741.6,312.6 L 738.9,305.2 L 736.1,297.7 L 734.1,289.9 L 732.5,281.9 L 731.5,273.7 L 730.9,265.4 L 730.8,257.0 L 731.1,248.7 L 731.3,240.7 L 731.8,232.3 L 730.9,224.2 L 729.6,216.1 L 728.0,208.1 L 726.8,200.0 L 725.2,192.0 L 723.8,183.7 L 723.1,175.5 L 722.8,167.4 L 723.4,159.1 L 725.1,151.0 L 728.0,143.3 L 730.9,135.7 L 735.0,128.8 L 739.6,122.3 L 744.1,115.8 L 748.8,109.3 L 753.8,103.2 L 760.6,99.7 L 766.0,94.1 L 771.7,88.9 L 774.0,81.0 L 767.8,77.8 L 761.2,74.0 L 753.6,75.3 L 748.3,81.2 L 745.1,88.4 L 739.1,93.6 L 733.4,99.1 L 728.5,105.4 L 723.6,111.7 L 719.5,118.5 L 715.4,125.4 L 711.4,132.4 L 707.5,139.4 L 703.9,146.6 L 701.2,154.3 L 699.4,162.3 L 698.0,170.4 L 697.4,178.5 L 697.3,187.0 L 698.3,195.2 L 696.5,202.4 L 696.4,210.3 L 694.0,217.9 L 697.3,224.8 L 699.7,232.3 L 701.3,240.2 L 702.9,248.3 L 704.7,256.3 L 706.4,264.2 L 708.5,272.2 L 710.1,280.2 L 712.0,288.1 L 713.8,296.2 L 716.6,303.7 L 719.6,311.0 L 723.0,318.3 L 727.0,325.2 L 731.6,331.5 L 737.0,337.2 L 743.6,341.7 L 751.2,344.4 L 759.3,346.0 L 767.4,344.4 L 774.6,341.0 L 780.2,335.5 L 784.5,328.8 L 787.4,321.2 L 790.7,313.8 L 793.5,306.0 L 795.6,298.0 L 797.8,290.1 L 799.5,282.1 L 801.4,274.1 L 803.0,266.0 Z" fill="#dde8f4" stroke="#3a6ea8" stroke-width="1.4"/>
<line x1="692.8" y1="54.0" x2="734.4" y2="377.7" stroke="#1a6e2a" stroke-width="1.8" stroke-dasharray="7,3"/>
<line x1="707.4" y1="378.9" x2="719.9" y2="52.8" stroke="#a03020" stroke-width="1.8" stroke-dasharray="7,3"/>
<path d="M 709.3,182.1 A 34,34 0 0,1 714.9,181.9" fill="none" stroke="#6020a0" stroke-width="2.2"/>
<text x="711.4" y="165.9" text-anchor="middle" dominant-baseline="middle" class="angle">9.5°</text>
<circle cx="713.6" cy="215.8" r="4" fill="#6020a0"/>
<text x="830.0" y="416" text-anchor="middle" class="label">S. prolongis</text>
<text x="830.0" y="431" text-anchor="middle" class="desc">(nearly aligned)</text>
<line x1="20" y1="450" x2="44" y2="450" stroke="#1a6e2a" stroke-width="1.5" stroke-dasharray="5,2"/>
<text x="48" y="454" font-size="10" fill="#333">shaft midline</text>
<line x1="135" y1="450" x2="159" y2="450" stroke="#a03020" stroke-width="1.5" stroke-dasharray="5,2"/>
<text x="163" y="454" font-size="10" fill="#333">root midline</text>
<circle cx="255" cy="450" r="3.5" fill="#6020a0"/>
<text x="262" y="454" font-size="10" fill="#333">deviation angle</text>
</svg>
