<svg xmlns="http://www.w3.org/2000/svg" width="600" height="445" viewBox="0 0 600 445">
<rect width="100%" height="100%" fill="white"/>
<defs>
  <style>
    .af  { fill:#dde8f4; stroke:#3a6ea8; stroke-width:1.3; }
    .sm  { stroke:#b03020; stroke-width:1.8; stroke-dasharray:6,3; fill:none; }
    .pm  { stroke:#1a6e2a; stroke-width:1.8; stroke-dasharray:6,3; fill:none; }
    .arc { stroke:#6020a0; stroke-width:2.2; fill:none; }
    .alb { font-family:Arial,sans-serif; font-size:12px; font-weight:bold; fill:#6020a0; }
    .slb { font-family:Arial,sans-serif; font-size:11px; fill:#222; text-anchor:middle; }
    .plb { font-family:Arial,sans-serif; font-size:9px; fill:#1a5490; font-style:italic; }
    .tlb { font-family:Arial,sans-serif; font-size:9px; fill:#666; text-anchor:middle; }
    .bk  { stroke:#cc6600; stroke-width:1.4; fill:none; }
    .leg { font-family:Arial,sans-serif; font-size:9px; fill:#333; }
  </style>
</defs>

<!-- ══════════════ PANEL 1 — STATE 0: slightly curved (~20°) ══════════════ -->

<!-- Shaft + roots (cx=100, junction at 100,205) -->
<path class="af" d="M 89,205 L 89,316 L 68,370 L 78,373 L 89,340 L 100,335 L 111,340 L 122,373 L 132,370 L 111,316 L 111,205 Z"/>

<!-- Point: direction ~20° from straight-up, (sin20°,−cos20°)=(0.342,−0.940) -->
<!-- J_left=(91,208), tip=(129,122), J_right=(109,202) -->
<path class="af" d="M 91,208 Q 107,168 129,122 Q 121,164 109,202 Z"/>

<!-- Middle shaft bracket (25%–75% of shaft: y=248 to y=272) -->
<line class="bk" x1="85" y1="248" x2="85" y2="272"/>
<line class="bk" x1="81" y1="248" x2="89" y2="248"/>
<line class="bk" x1="81" y1="272" x2="89" y2="272"/>

<!-- Shaft midline – red dashed, vertical through cx=100 -->
<line class="sm" x1="100" y1="168" x2="100" y2="338"/>

<!-- Point midline – green dashed, direction (0.342,−0.940) extended through junction -->
<!-- start: J−22·v=(93,226), end: J+105·v=(136,106) -->
<line class="pm" x1="93" y1="226" x2="136" y2="106"/>

<!-- Angle arc at junction (100,205): from up (100,177) to (110,179), 20° CW -->
<path class="arc" d="M 100,177 A 28,28 0 0,1 110,179"/>

<!-- Angle label near arc bisector (10° from up) -->
<text class="alb" x="103" y="172">~20°</text>

<!-- Part labels -->
<text class="plb" x="136" y="155">Point</text>
<text class="plb" x="76" y="278">Shaft</text>

<!-- State label -->
<text class="slb" x="100" y="395">State 0 — slightly curved</text>
<text class="tlb" x="100" y="408">angle &lt; 45°</text>


<!-- ══════════════ PANEL 2 — STATE 1: moderately curved (~70°) ══════════════ -->

<!-- Shaft + roots (cx=300, junction at 300,205) -->
<path class="af" d="M 289,205 L 289,316 L 268,370 L 278,373 L 289,340 L 300,335 L 311,340 L 322,373 L 332,370 L 311,316 L 311,205 Z"/>

<!-- Point: direction ~70°, (sin70°,−cos70°)=(0.940,−0.342) -->
<!-- J_left=(297,196), tip=(374,177), J_right=(303,214) -->
<path class="af" d="M 297,196 Q 335,186 374,177 Q 338,196 303,214 Z"/>

<!-- Middle shaft bracket -->
<line class="bk" x1="285" y1="248" x2="285" y2="272"/>
<line class="bk" x1="281" y1="248" x2="289" y2="248"/>
<line class="bk" x1="281" y1="272" x2="289" y2="272"/>

<!-- Shaft midline -->
<line class="sm" x1="300" y1="168" x2="300" y2="338"/>

<!-- Point midline – direction (0.940,−0.342) -->
<!-- start: J−22·v=(279,213), end: J+90·v=(385,174) -->
<line class="pm" x1="279" y1="213" x2="385" y2="174"/>

<!-- Angle arc: from (300,177) to (326,196), 70° CW -->
<path class="arc" d="M 300,177 A 28,28 0 0,1 326,196"/>

<!-- Angle label at bisector (35° from up) -->
<text class="alb" x="316" y="177">~70°</text>

<!-- Part labels -->
<text class="plb" x="347" y="170">Point</text>
<text class="plb" x="276" y="278">Shaft</text>

<!-- State label -->
<text class="slb" x="300" y="395">State 1 — moderately curved</text>
<text class="tlb" x="300" y="408">45° – 90°</text>


<!-- ══════════════ PANEL 3 — STATE 2: strongly curved (~115°) ══════════════ -->

<!-- Shaft + roots (cx=500, junction at 500,205) -->
<path class="af" d="M 489,205 L 489,316 L 468,370 L 478,373 L 489,340 L 500,335 L 511,340 L 522,373 L 532,370 L 511,316 L 511,205 Z"/>

<!-- Point: direction ~115°, (sin115°,−cos115°)=(0.906,+0.423) — goes right and DOWN -->
<!-- J_left=(496,196), tip=(573,239), J_right=(504,214) -->
<path class="af" d="M 496,196 Q 534,217 573,239 Q 537,227 504,214 Z"/>

<!-- Middle shaft bracket -->
<line class="bk" x1="485" y1="248" x2="485" y2="272"/>
<line class="bk" x1="481" y1="248" x2="489" y2="248"/>
<line class="bk" x1="481" y1="272" x2="489" y2="272"/>

<!-- Shaft midline -->
<line class="sm" x1="500" y1="168" x2="500" y2="338"/>

<!-- Point midline – direction (0.906,+0.423) -->
<!-- start: J−18·v=(484,197), end: J+90·v=(582,243) -->
<line class="pm" x1="484" y1="197" x2="582" y2="243"/>

<!-- Angle arc: from (500,177) to (525,217), 115° CW -->
<path class="arc" d="M 500,177 A 28,28 0 0,1 525,217"/>

<!-- Angle label at bisector (57.5° from up) -->
<text class="alb" x="524" y="187">~115°</text>

<!-- Part labels -->
<text class="plb" x="545" y="230">Point</text>
<text class="plb" x="476" y="278">Shaft</text>

<!-- State label -->
<text class="slb" x="500" y="395">State 2 — strongly curved</text>
<text class="tlb" x="500" y="408">angle &gt; 90°</text>


<!-- ══════════════════════════ LEGEND ══════════════════════════════════════ -->
<line x1="15"  y1="427" x2="37"  y2="427" stroke="#1a6e2a" stroke-width="1.5" stroke-dasharray="5,2"/>
<text class="leg" x="41"  y="431">point midline</text>
<line x1="128" y1="427" x2="150" y2="427" stroke="#b03020" stroke-width="1.5" stroke-dasharray="5,2"/>
<text class="leg" x="154" y="431">shaft midline (middle region)</text>
<path d="M 342,431 A 7,7 0 0,1 349,431" stroke="#6020a0" stroke-width="1.8" fill="none"/>
<text class="leg" x="352" y="431">deviation angle</text>
<line x1="435" y1="427" x2="450" y2="427" stroke="#cc6600" stroke-width="1.8"/>
<text class="leg" x="453" y="431">middle shaft region</text>
</svg>
