<svg xmlns="http://www.w3.org/2000/svg" width="600" height="460" viewBox="0 0 600 460">
<rect width="100%" height="100%" fill="white"/>
<defs>
  <style>
    .af  { fill:#dde8f4; stroke:#3a6ea8; stroke-width:1.3; }
    .sm  { stroke:#b03020; stroke-width:1.8; stroke-dasharray:6,3; fill:none; }
    .pm  { stroke:#1a6e2a; stroke-width:1.8; stroke-dasharray:6,3; fill:none; }
    .arc { stroke:#6020a0; stroke-width:2.2; fill:none; }
    .alb { font-family:Arial,sans-serif; font-size:12px; font-weight:bold; fill:#6020a0; }
    .slb { font-family:Arial,sans-serif; font-size:11px; fill:#222; text-anchor:middle; }
    .plb { font-family:Arial,sans-serif; font-size:9px; fill:#1a5490; font-style:italic; }
    .tlb { font-family:Arial,sans-serif; font-size:9px; fill:#666; text-anchor:middle; }
    .bk  { stroke:#cc6600; stroke-width:1.4; fill:none; }
    .leg { font-family:Arial,sans-serif; font-size:9px; fill:#333; }
  </style>
</defs>

<!-- ══════════════ PANEL 1 — STATE 0: slightly curved (~20°) ══════════════ -->
<!-- Orientation: roots at top, junction at y=230, point goes right-and-down -->
<!-- θ=20°: point direction = (sin20°, cos20°) = (0.342, 0.940) in SVG coords -->

<!-- Shaft rectangle -->
<path class="af" d="M 91,108 L 91,230 L 109,230 L 109,108 Z"/>
<!-- Root prongs (two small filled triangles at shaft top) -->
<path class="af" d="M 91,108 L 77,85 L 95,94 Z"/>
<path class="af" d="M 109,108 L 123,85 L 105,94 Z"/>

<!-- Point shape: base=(93,233)/(108,227), tip=(137,332) -->
<!-- perp=(cos20°,-sin20°)=(0.940,-0.342); base pts = junction ± perp*8 -->
<path class="af" d="M 93,233 L 137,332 L 108,227 Z"/>

<!-- Middle shaft bracket (25%–75% of shaft height, left side) -->
<line class="bk" x1="85" y1="138" x2="85" y2="200"/>
<line class="bk" x1="81" y1="138" x2="89" y2="138"/>
<line class="bk" x1="81" y1="200" x2="89" y2="200"/>

<!-- Shaft midline: vertical red dashed, crosses junction -->
<line class="sm" x1="100" y1="68" x2="100" y2="315"/>

<!-- Point midline: green dashed, through junction at θ=20° -->
<!-- passes through junction(100,230): from (86,192) to (139,338) -->
<line class="pm" x1="86" y1="192" x2="139" y2="338"/>

<!-- Angle arc at LOWER crossing (between shaft-down and point direction), θ=20° -->
<!-- arc start: junction+(0,+26)=(100,256); arc end: junction+d*26=(109,254) -->
<!-- sweep=0 (CCW on screen): from south CCW to SE = short 20° arc -->
<path class="arc" d="M 100,256 A 26,26 0 0,0 109,254"/>

<!-- Angle label at bisector (10° from downward) -->
<text class="alb" x="109" y="278">~20°</text>

<!-- Part labels -->
<text class="plb" x="143" y="305">Point</text>
<text class="plb" x="73"  y="172">Shaft</text>
<text class="plb" x="75"  y="90">Roots</text>

<!-- State label -->
<text class="slb" x="100" y="400">State 0 — slightly curved</text>
<text class="tlb" x="100" y="415">angle &lt; 45°</text>


<!-- ══════════════ PANEL 2 — STATE 1: moderately curved (~70°) ══════════════ -->
<!-- θ=70°: point direction = (sin70°, cos70°) = (0.940, 0.342) -->

<!-- Shaft rectangle -->
<path class="af" d="M 291,108 L 291,230 L 309,230 L 309,108 Z"/>
<!-- Root prongs -->
<path class="af" d="M 291,108 L 277,85 L 295,94 Z"/>
<path class="af" d="M 309,108 L 323,85 L 305,94 Z"/>

<!-- Point shape: base=(297,238)/(303,223), tip=(401,267) -->
<!-- perp=(cos70°,-sin70°)=(0.342,-0.940) -->
<path class="af" d="M 297,238 L 401,267 L 303,223 Z"/>

<!-- Middle shaft bracket -->
<line class="bk" x1="285" y1="138" x2="285" y2="200"/>
<line class="bk" x1="281" y1="138" x2="289" y2="138"/>
<line class="bk" x1="281" y1="200" x2="289" y2="200"/>

<!-- Shaft midline -->
<line class="sm" x1="300" y1="68" x2="300" y2="315"/>

<!-- Point midline: from (262,216) to (408,269), passes through junction(300,230) -->
<line class="pm" x1="262" y1="216" x2="408" y2="269"/>

<!-- Angle arc at LOWER crossing, θ=70° -->
<!-- arc start: (300,256); arc end: junction+d*26=(324,239) -->
<path class="arc" d="M 300,256 A 26,26 0 0,0 324,239"/>

<!-- Angle label at bisector (35° from downward) -->
<text class="alb" x="325" y="270">~70°</text>

<!-- Part labels -->
<text class="plb" x="382" y="252">Point</text>
<text class="plb" x="273" y="172">Shaft</text>

<!-- State label -->
<text class="slb" x="300" y="400">State 1 — moderately curved</text>
<text class="tlb" x="300" y="415">45° – 90°</text>


<!-- ══════════════ PANEL 3 — STATE 2: strongly curved (~115°) ══════════════ -->
<!-- θ=115°: point direction = (sin115°, cos115°) = (0.906, -0.423) -->
<!-- Point goes right and UP (past perpendicular) -->

<!-- Shaft rectangle -->
<path class="af" d="M 491,108 L 491,230 L 509,230 L 509,108 Z"/>
<!-- Root prongs -->
<path class="af" d="M 491,108 L 477,85 L 495,94 Z"/>
<path class="af" d="M 509,108 L 523,85 L 505,94 Z"/>

<!-- Point shape: base=(503,237)/(497,223), tip=(581,192) -->
<!-- perp=(cos115°,-sin115°)=(-0.423,-0.906) -->
<path class="af" d="M 503,237 L 581,192 L 497,223 Z"/>

<!-- Middle shaft bracket -->
<line class="bk" x1="485" y1="138" x2="485" y2="200"/>
<line class="bk" x1="481" y1="138" x2="489" y2="138"/>
<line class="bk" x1="481" y1="200" x2="489" y2="200"/>

<!-- Shaft midline -->
<line class="sm" x1="500" y1="68" x2="500" y2="315"/>

<!-- Point midline: from (464,247) to (585,190), passes through junction(500,230) -->
<line class="pm" x1="464" y1="247" x2="585" y2="190"/>

<!-- Angle arc at LOWER crossing (shaft-down to point direction), 115° -->
<!-- arc start: junction+(0,+26)=(500,256); arc end: junction+d*26=(524,219) -->
<!-- sweep=0 (CCW in SVG): from south(90°) CCW to NE(335°) = 115° ✓ -->
<path class="arc" d="M 500,256 A 26,26 0 0,0 524,219"/>

<!-- Angle label at arc midpoint (~32.5° SVG angle from junction) -->
<text class="alb" x="530" y="248">~115°</text>

<!-- Part labels -->
<text class="plb" x="551" y="180">Point</text>
<text class="plb" x="473" y="172">Shaft</text>

<!-- State label -->
<text class="slb" x="500" y="400">State 2 — strongly curved</text>
<text class="tlb" x="500" y="415">angle &gt; 90°</text>


<!-- ══════════════════════════ LEGEND ══════════════════════════════════════ -->
<line x1="15"  y1="440" x2="37"  y2="440" stroke="#1a6e2a" stroke-width="1.5" stroke-dasharray="5,2"/>
<text class="leg" x="41"  y="444">point midline</text>
<line x1="128" y1="440" x2="150" y2="440" stroke="#b03020" stroke-width="1.5" stroke-dasharray="5,2"/>
<text class="leg" x="154" y="444">shaft midline (middle region)</text>
<path d="M 340,444 A 7,7 0 0,1 347,444" stroke="#6020a0" stroke-width="1.8" fill="none"/>
<text class="leg" x="350" y="444">deviation angle</text>
<line x1="432" y1="440" x2="447" y2="440" stroke="#cc6600" stroke-width="1.8"/>
<text class="leg" x="450" y="444">middle shaft region</text>
</svg>
